<svg width="90" height="90" viewBox="0 0 90 90" fill="none" xmlns="http://www.w3.org/2000/svg">
<path fill-rule="evenodd" clip-rule="evenodd" d="M5.63816 11.3432L24.4668 0.481934L44.1732 11.7537L25.2603 22.6749V44.4118L63.2626 22.6724L63.4448 22.7767L83.0538 33.9927L83.0669 34.0002V78.1896L63.4448 89.5181V88.7L44.4592 77.8392L63.4448 66.8874V45.2293L25.4473 66.9633L25.2603 66.8563L5.64285 55.6341L5.63816 55.6314V34.0057L5.625 34.0133L5.63808 11.3432L5.63816 11.3432Z" fill="white"/>
<path fill-rule="evenodd" clip-rule="evenodd" d="M25.2603 66.8563L5.63815 55.6314V11.3432L25.2603 1.76584V66.8563Z" fill="white"/>
<path d="M63.4448 22.7767V70.7681L83.0669 78.1896L83.0669 34.0002L63.4448 22.7767Z" fill="white"/>
<path d="M63.2626 22.6724L5.64285 55.6341L25.4473 66.9633L83.0538 34.0133V33.9927L63.2626 22.6724Z" fill="white"/>
<path fill-rule="evenodd" clip-rule="evenodd" d="M24.4668 0.481934L5.63808 11.3432L5.625 34.0133L44.1732 11.7537L24.4668 0.481934Z" fill="white"/>
<path d="M44.4592 77.8392L83.0642 55.5701V78.186L64.1539 89.1057L44.4592 77.8392Z" fill="white"/>
</svg>
